<?xml version="1.0" encoding="utf-8"?>
<!DOCTYPE svg PUBLIC "-//W3C//DTD SVG 1.0//EN" "http://www.w3.org/TR/2001/REC-SVG-20010904/DTD/svg10.dtd">
<svg version="1.0" xmlns="http://www.w3.org/2000/svg" width="600px" height="600px" viewBox="0 0 600 600"
     preserveAspectRatio="xMidYMid meet">
    <g fill="#feffff">
        <path d="M57.50 538 c0 -0.25 -0.65 -0.50 -1.50 -0.50 -0.80 0 -1.50 -0.20 -1.50 -0.50 0 -0.25 -0.65 -0.50 -1.50 -0.50 -0.80 0 -1.50 -0.20 -1.50 -0.50 0 -0.25 -0.45 -0.50 -1 -0.50 -0.55 0 -1 -0.20 -1 -0.50 0 -0.25 -0.45 -0.50 -1 -0.50 -0.90 0 -1 -0.35 -1 -3 0 -1.65 0.20 -3 0.50 -3 0.30 0 0.50 -0.45 0.50 -1 0 -0.55 0.25 -1 0.50 -1 0.30 0 0.50 -0.45 0.50 -1 0 -0.55 0.25 -1 0.50 -1 0.30 0 0.50 -0.45 0.50 -1 0 -0.55 0.25 -1 0.50 -1 0.30 0 0.50 -0.45 0.50 -1 0 -0.90 0.35 -1 3 -1 1.65 0 3 0.20 3 0.50 0 0.30 0.45 0.50 1 0.50 0.55 0 1 0.25 1 0.50 0 0.30 0.70 0.50 1.50 0.50 0.85 0 1.50 0.25 1.50 0.50 0 0.85 6.45 0.60 7.30 -0.25 0.70 -0.65 0.70 -0.85 0 -1.50 -0.40 -0.40 -1.10 -0.75 -1.50 -0.75 -0.45 0 -0.80 -0.20 -0.80 -0.50 0 -0.25 -0.65 -0.50 -1.50 -0.50 -0.80 0 -1.50 -0.20 -1.50 -0.50 0 -0.25 -0.65 -0.50 -1.50 -0.50 -0.80 0 -1.50 -0.20 -1.50 -0.50 0 -0.25 -0.65 -0.50 -1.50 -0.50 -0.80 0 -1.50 -0.20 -1.50 -0.50 0 -0.25 -0.45 -0.50 -1 -0.50 -0.55 0 -1 -0.20 -1 -0.50 0 -0.25 -0.45 -0.50 -1 -0.50 -0.55 0 -1 -0.20 -1 -0.50 0 -0.25 -0.35 -0.50 -0.75 -0.50 -1 0 -5.25 -4.25 -5.25 -5.25 0 -0.40 -0.20 -0.75 -0.50 -0.75 -0.30 0 -0.50 -2.85 -0.50 -7.50 0 -4.65 0.20 -7.50 0.50 -7.50 0.30 0 0.50 -0.35 0.50 -0.75 0 -1 5.25 -6.25 6.25 -6.25 0.40 0 0.75 -0.20 0.75 -0.50 0 -0.25 0.45 -0.50 1 -0.50 0.55 0 1 -0.20 1 -0.50 0 -0.25 0.90 -0.50 2 -0.50 1.10 0 2 -0.20 2 -0.50 0 -0.30 2.85 -0.50 7.50 -0.50 4.65 0 7.50 0.20 7.50 0.50 0 0.30 1.15 0.50 2.50 0.50 1.40 0 2.50 0.25 2.50 0.50 0 0.30 0.70 0.50 1.50 0.50 0.85 0 1.50 0.25 1.50 0.50 0 0.30 0.60 0.50 1.30 0.50 2 0 2.70 1.10 2.70 4.20 0 1.55 -0.20 2.80 -0.50 2.80 -0.25 0 -0.50 0.40 -0.50 0.90 0 0.50 -0.45 1.20 -1 1.60 -0.55 0.40 -1 1.10 -1 1.60 0 0.50 -0.20 0.90 -0.50 0.90 -0.25 0 -0.50 0.35 -0.50 0.80 0 1.40 -1.35 2.20 -3.70 2.20 -1.25 0 -2.30 -0.20 -2.30 -0.50 0 -0.25 -0.45 -0.50 -1 -0.50 -0.55 0 -1 -0.20 -1 -0.50 0 -0.25 -0.90 -0.50 -2 -0.50 -1.10 0 -2 -0.20 -2 -0.50 0 -0.30 -1.35 -0.50 -3 -0.50 -2.40 0 -3 0.15 -3 0.80 0 1 1.20 2.20 2.20 2.20 0.45 0 0.80 0.25 0.80 0.50 0 0.30 0.70 0.50 1.50 0.50 0.85 0 1.50 0.25 1.50 0.50 0 0.30 0.70 0.50 1.50 0.50 0.85 0 1.50 0.25 1.50 0.50 0 0.30 0.70 0.50 1.50 0.50 0.85 0 1.50 0.25 1.50 0.50 0 0.30 0.45 0.50 1 0.50 0.55 0 1 0.25 1 0.50 0 0.30 0.45 0.50 1 0.50 0.55 0 1 0.25 1 0.50 0 0.30 0.35 0.50 0.80 0.50 0.45 0 1.45 0.70 2.20 1.50 1.65 1.75 2 1.85 2 0.50 0 -0.55 0.25 -1 0.50 -1 0.30 0 0.50 -0.45 0.50 -1 0 -0.55 0.25 -1 0.50 -1 0.30 0 0.50 -0.65 0.50 -1.50 0 -0.80 0.25 -1.50 0.50 -1.50 0.30 0 0.50 -0.65 0.50 -1.50 0 -0.80 0.25 -1.50 0.50 -1.50 0.30 0 0.50 -0.45 0.50 -1 0 -0.55 0.25 -1 0.50 -1 0.30 0 0.50 -0.65 0.50 -1.50 0 -0.80 0.25 -1.50 0.50 -1.50 0.30 0 0.50 -0.65 0.50 -1.50 0 -0.80 0.25 -1.50 0.50 -1.50 0.30 0 0.50 -0.45 0.50 -1 0 -0.55 0.25 -1 0.50 -1 0.30 0 0.50 -0.65 0.50 -1.50 0 -0.80 0.25 -1.50 0.50 -1.50 0.30 0 0.50 -0.65 0.50 -1.50 l0 -1.50 9.50 0 9.50 0 0 1.50 c0 0.85 0.25 1.50 0.50 1.50 0.30 0 0.50 0.45 0.50 1 0 0.55 0.25 1 0.50 1 0.30 0 0.50 0.70 0.50 1.50 0 0.85 0.25 1.50 0.50 1.50 0.30 0 0.50 0.70 0.50 1.50 0 0.85 0.25 1.50 0.50 1.50 0.30 0 0.50 0.70 0.50 1.50 0 0.85 0.25 1.50 0.50 1.50 0.30 0 0.50 0.45 0.50 1 0 0.55 0.25 1 0.50 1 0.30 0 0.50 0.70 0.50 1.50 0 0.85 0.25 1.50 0.50 1.50 0.30 0 0.50 0.70 0.50 1.50 0 0.85 0.25 1.50 0.50 1.50 0.30 0 0.50 0.45 0.50 1 0 0.55 0.25 1 0.50 1 0.30 0 0.50 -4.35 0.50 -12 l0 -12 14 0 c9 0 14 0.20 14 0.50 0 0.30 0.90 0.50 2 0.50 1.10 0 2 0.25 2 0.50 0 0.30 0.65 0.50 1.40 0.50 0.80 0 1.70 0.40 2.10 1 0.40 0.55 1 1 1.40 1 0.90 0 3.10 2.30 3.10 3.25 0 0.40 0.25 0.75 0.50 0.75 0.30 0 0.50 0.45 0.50 1 0 0.55 0.25 1 0.50 1 0.30 0 0.50 0.90 0.50 2 0 1.10 0.25 2 0.50 2 0.30 0 0.50 2 0.50 5 0 3 -0.20 5 -0.50 5 -0.25 0 -0.50 0.90 -0.50 2 0 1.10 -0.20 2 -0.50 2 -0.25 0 -0.50 0.40 -0.50 0.90 0 0.50 -0.45 1.20 -1 1.60 -0.55 0.40 -1 1 -1 1.40 0 0.85 -1.25 2.10 -2.10 2.10 -0.40 0 -1 0.45 -1.40 1 -0.40 0.60 -1.30 1 -2.10 1 -0.75 0 -1.40 0.25 -1.40 0.50 0 0.30 -0.65 0.50 -1.50 0.50 -0.80 0 -1.50 0.25 -1.50 0.50 0 0.30 -2.15 0.50 -5.50 0.50 l-5.50 0 0 7.50 0 7.50 -14 0 c-13.65 0 -14 0 -14 -1 0 -0.55 -0.20 -1 -0.50 -1 -0.25 0 -0.50 -0.60 -0.50 -1.30 0 -2.40 -0.90 -2.70 -7.50 -2.70 -6.60 0 -7.50 0.30 -7.50 2.70 0 0.70 -0.20 1.30 -0.50 1.30 -0.25 0 -0.50 0.45 -0.50 1 0 0.95 -0.35 1 -11 1 -7 0 -11 0.20 -11 0.50 0 0.30 -3.35 0.50 -9 0.50 -5.65 0 -9 -0.20 -9 -0.50z m50 -23 c0 -0.80 -0.20 -1.50 -0.50 -1.50 -0.25 0 -0.50 -0.65 -0.50 -1.50 0 -0.80 -0.20 -1.50 -0.50 -1.50 -0.25 0 -0.50 0.70 -0.50 1.50 0 0.85 -0.20 1.50 -0.50 1.50 -0.25 0 -0.50 0.70 -0.50 1.50 0 1.35 0.15 1.50 1.50 1.50 1.35 0 1.50 -0.15 1.50 -1.50z m39 -8 c0 -0.25 0.35 -0.50 0.80 -0.50 1.25 0 2.20 -1.30 2.20 -3 0 -1.90 -1.95 -4 -3.75 -4 -0.70 0 -1.25 -0.20 -1.25 -0.50 0 -0.25 -0.45 -0.50 -1 -0.50 -0.95 0 -1 0.35 -1 4.50 l0 4.50 2 0 c1.10 0 2 -0.20 2 -0.50z"/>
        <path d="M13 228.75 l0 -214.75 285.90 0 285.95 0 0.30 10.85 c0.20 6 0.35 102.65 0.35 214.80 l0 203.85 -286.25 0 -286.25 0 0 -214.75z"/>
    </g>
    <g fill="#01b1ee">
        <path d="M48 494.75 c0 -0.95 0.25 -1.75 0.50 -1.75 0.30 0 0.50 -0.45 0.50 -1 0 -0.65 0.35 -1 1 -1 0.65 0 1 -0.35 1 -1 0 -0.80 0.35 -1 1.50 -1 0.85 0 1.50 0.15 1.50 0.30 0 0.15 -0.90 1.15 -2 2.20 -1.10 1.05 -2 2.30 -2 2.70 0 0.45 -0.20 0.80 -0.50 0.80 -0.25 0 -0.50 0.35 -0.50 0.75 0 0.40 -0.20 0.75 -0.50 0.75 -0.25 0 -0.50 -0.80 -0.50 -1.75z"/>
        <path d="M87 489.95 c0 -0.95 -1.40 -1.95 -2.70 -1.95 -0.70 0 -1.30 -0.20 -1.30 -0.50 0 -0.25 -0.35 -0.50 -0.75 -0.50 -0.40 0 -0.75 -0.20 -0.75 -0.50 0 -0.25 0.80 -0.50 1.75 -0.50 0.95 0 1.75 0.25 1.75 0.50 0 0.30 0.70 0.50 1.50 0.50 1.40 0 1.50 0.15 1.50 1.75 0 0.95 -0.20 1.75 -0.50 1.75 -0.25 0 -0.50 -0.25 -0.50 -0.55z"/>
        <path d="M115 489.75 c0 -0.40 -0.20 -0.75 -0.50 -0.75 -0.25 0 -0.50 -0.45 -0.50 -1 0 -0.65 0.35 -1 1 -1 0.80 0 1 0.35 1 1.75 0 0.95 -0.20 1.75 -0.50 1.75 -0.25 0 -0.50 -0.35 -0.50 -0.75z"/>
        <path d="M158.50 489 c-0.40 -0.60 -1.30 -1 -2.10 -1 -0.75 0 -1.40 -0.20 -1.40 -0.50 0 -0.25 -0.35 -0.50 -0.75 -0.50 -0.40 0 -0.75 -0.20 -0.75 -0.50 0 -0.25 0.80 -0.50 1.75 -0.50 0.95 0 1.75 0.25 1.75 0.50 0 0.30 0.60 0.50 1.30 0.50 1.45 0 2.70 1.05 2.70 2.20 0 1.15 -1.65 1 -2.50 -0.20z"/>
        <path d="M55 487 c0 -0.80 0.35 -1 1.75 -1 0.95 0 1.75 0.25 1.75 0.50 0 0.30 -0.35 0.50 -0.75 0.50 -0.40 0 -0.75 0.25 -0.75 0.50 0 0.30 -0.45 0.50 -1 0.50 -0.65 0 -1 -0.35 -1 -1z"/>
        <path d="M59.90 481.95 c-0.20 -0.55 -1.50 -0.70 -5.95 -0.70 -3.15 -0.05 -6.55 -0.25 -7.60 -0.45 l-1.85 -0.40 0 -5.45 0 -5.45 83 0 83 0 0 1.75 c0 1.45 -0.45 2.20 -2.45 4.15 -3.15 3.05 -5.45 5.10 -5.80 5.10 -0.15 0 -0.75 0.45 -1.35 1 -1.15 1.05 -4.40 1.40 -4.40 0.50 0 -0.35 -1 -0.45 -3 -0.20 -2.10 0.25 -3 0.15 -3 -0.25 0 -0.35 -1.55 -0.55 -4.75 -0.55 -2.85 0 -4.75 0.20 -4.75 0.50 0 0.30 -2.85 0.50 -7.50 0.50 -4.65 0 -7.50 -0.20 -7.50 -0.50 0 -0.65 -13.85 -0.70 -14.10 -0.05 -0.30 0.85 -66.40 0.90 -66.40 0.05 0 -0.65 -5.85 -0.65 -6.10 -0.05 -0.10 0.30 -4.45 0.65 -9.70 0.85 -7.95 0.30 -9.60 0.25 -9.80 -0.35z"/>
    </g>
    <g fill="#06a6e6">
        <path d="M51 535 c0 -0.65 0.35 -1 1 -1 0.55 0 1 0.25 1 0.50 0 0.30 0.35 0.50 0.75 0.50 0.40 0 0.75 0.25 0.75 0.50 0 0.30 -0.80 0.50 -1.75 0.50 -1.40 0 -1.75 -0.20 -1.75 -1z"/>
        <path d="M61 517 c0 -0.65 0.35 -1 1 -1 0.55 0 1 0.25 1 0.50 0 0.30 0.35 0.50 0.75 0.50 0.40 0 0.75 0.25 0.75 0.50 0 0.30 -0.80 0.50 -1.75 0.50 -1.40 0 -1.75 -0.20 -1.75 -1z"/>
        <path d="M48 507.25 c0 -0.95 0.25 -1.75 0.50 -1.75 0.30 0 0.50 0.35 0.50 0.75 0 0.40 0.25 0.75 0.50 0.75 0.30 0 0.50 0.45 0.50 1 0 0.65 -0.35 1 -1 1 -0.80 0 -1 -0.35 -1 -1.75z"/>
        <path d="M81 508.50 c0 -0.25 -0.45 -0.50 -1 -0.50 -0.55 0 -1 -0.20 -1 -0.50 0 -0.25 -0.35 -0.50 -0.75 -0.50 -0.40 0 -0.75 -0.20 -0.75 -0.50 0 -0.25 0.80 -0.50 1.75 -0.50 0.95 0 1.75 0.25 1.75 0.50 0 0.30 0.45 0.50 1 0.50 0.65 0 1 0.35 1 1 0 0.65 -0.35 1 -1 1 -0.55 0 -1 -0.20 -1 -0.50z"/>
        <path d="M148.50 500.75 c0 -0.95 0.25 -1.75 0.55 -1.75 0.75 0 1.95 1.30 1.95 2.15 0 0.45 0.30 0.90 0.65 1 0.30 0.15 -0.25 0.30 -1.25 0.30 -1.85 0.05 -1.90 0 -1.90 -1.70z"/>
        <path d="M83 498 c0 -0.55 0.25 -1 0.50 -1 0.30 0 0.50 -0.35 0.50 -0.75 0 -0.40 0.25 -0.75 0.50 -0.75 0.30 0 0.50 0.80 0.50 1.75 0 1.40 -0.20 1.75 -1 1.75 -0.65 0 -1 -0.35 -1 -1z"/>
        <path d="M93 496.75 c0 -1.40 0.20 -1.75 1 -1.75 0.65 0 1 0.35 1 1 0 0.55 -0.20 1 -0.50 1 -0.25 0 -0.50 0.35 -0.50 0.75 0 0.40 -0.20 0.75 -0.50 0.75 -0.25 0 -0.50 -0.80 -0.50 -1.75z"/>
        <path d="M50 491.55 c0 -1.20 0.20 -1.55 1 -1.55 0.55 0 1 -0.35 1 -0.75 0 -0.60 -0.75 -0.75 -3.75 -0.75 l-3.75 0 0 -6 c0 -5 0.15 -6 0.75 -6 0.70 0 1 0.95 0.75 2.25 -0.05 0.30 0.20 0.20 0.55 -0.10 0.85 -0.85 1.45 -0.80 1.45 0.05 0 0.80 1.40 1.25 2.60 0.85 1.10 -0.40 16.70 0.60 17.20 1.10 0.55 0.55 2.20 0.40 2.20 -0.20 0 -0.30 0.60 -0.40 1.45 -0.30 0.85 0.15 1.55 0.05 1.65 -0.15 0.15 -0.45 4.45 -0.60 12.80 -0.55 2.30 0.05 4.05 0.25 3.90 0.45 -0.30 0.55 2 0.45 2.50 -0.05 0.20 -0.20 0.70 -0.35 1.15 -0.30 0.60 0 0.55 0.15 -0.20 0.45 -0.60 0.25 3.55 0.45 10.60 0.45 6.40 0 11.75 -0.20 11.90 -0.45 0.25 -0.45 4.65 -0.40 5.50 0.05 0.30 0.15 3.10 0.25 6.35 0.20 3.20 0 5.70 0.15 5.55 0.40 -0.10 0.20 0.05 0.35 0.30 0.35 0.30 0 0.55 -0.20 0.55 -0.45 0 -0.25 2.10 -0.40 4.85 -0.30 2.75 0.10 5.25 0 5.80 -0.30 0.65 -0.40 1.10 -0.40 1.50 0 0.30 0.30 0.90 0.55 1.30 0.55 0.70 0 0.70 -0.05 0.05 -0.50 -0.65 -0.40 -0.65 -0.50 0.10 -0.50 0.45 0 1 0.25 1.15 0.50 0.15 0.30 0.70 0.50 1.15 0.45 0.70 0 0.65 -0.10 -0.15 -0.45 -1.35 -0.60 1 -0.65 16.40 -0.50 4.30 0.05 7.25 0.30 7.05 0.55 -0.15 0.25 0 0.45 0.25 0.45 0.30 0 0.55 -0.25 0.55 -0.55 0 -0.85 23.45 -0.40 23.95 0.45 0.25 0.45 0.65 0.35 1.45 -0.40 0.55 -0.55 1.30 -1 1.60 -1 0.30 0 0.40 -0.20 0.25 -0.50 -0.15 -0.25 0.05 -0.50 0.45 -0.50 0.40 0 1.20 -0.60 1.75 -1.30 0.60 -0.75 1.05 -1.20 1.05 -1 0 0.20 0.90 -0.60 2 -1.75 l2 -2.10 0 1.80 c0 1.65 -0.15 1.85 -1.25 1.85 -0.90 0 -1.25 0.25 -1.25 1 0 1.10 -10.75 12 -11.80 12 -0.30 0 -0.70 0.45 -0.85 1 -0.20 0.70 -0.70 1 -1.75 1 -1.95 0 -3.10 -0.45 -3.10 -1.25 0 -0.50 -2.80 -0.55 -13.55 -0.35 -13.20 0.25 -18.15 -0.15 -19.65 -1.50 -0.30 -0.20 -1.35 -0.40 -2.40 -0.40 -1.05 0 -1.90 -0.20 -1.90 -0.50 0 -0.30 -4.50 -0.50 -12.50 -0.50 l-12.50 0 0 1.20 c0 1.40 -1.40 1.80 -6.05 1.80 l-2.95 0 0 1.75 c0 0.95 -0.20 1.75 -0.50 1.75 -0.25 0 -0.50 -0.35 -0.50 -0.75 0 -0.40 -0.20 -0.75 -0.50 -0.75 -0.25 0 -0.50 -0.45 -0.50 -0.95 0 -0.55 -0.25 -1.15 -0.50 -1.30 -0.25 -0.15 -0.50 -0.85 -0.50 -1.55 l0 -1.20 -8 0 -8 0 0 1.50 c0 0.85 -0.20 1.50 -0.50 1.50 -0.25 0 -0.50 0.35 -0.50 0.75 0 0.40 -0.35 0.75 -0.75 0.75 -0.40 0 -0.75 -0.45 -0.75 -1 0 -0.90 -0.35 -1 -3.50 -1 -2 0 -3.50 0.20 -3.50 0.50 0 0.75 -1.30 0.60 -2 -0.25 -0.35 -0.40 -1.15 -0.75 -1.80 -0.75 -0.60 0 -1.30 -0.20 -1.45 -0.50 -0.15 -0.30 -0.95 -0.50 -1.80 -0.50 -0.80 0 -1.45 -0.20 -1.45 -0.50 0 -0.25 -1.10 -0.50 -2.50 -0.50 -1.35 0 -2.50 -0.20 -2.50 -0.50 0 -0.30 -2.35 -0.50 -6 -0.50 -3.65 0 -6 0.20 -6 0.50 0 0.30 -0.90 0.50 -2 0.50 -1.10 0 -2 0.25 -2 0.50 0 0.30 -0.35 0.50 -0.75 0.50 -1.10 0 -2.70 1 -4.75 3 -3.40 3.30 -3.50 3.35 -3.50 1.55z"/>
    </g>
    <g fill="#0b98dd">
        <path d="M49 534 c0 -0.65 0.35 -1 1 -1 0.55 0 1 0.25 1 0.50 0 0.30 0.35 0.50 0.75 0.50 0.40 0 0.75 0.25 0.75 0.50 0 0.30 -0.80 0.50 -1.75 0.50 -1.40 0 -1.75 -0.20 -1.75 -1z"/>
        <path d="M98 530 c0 -0.55 0.25 -1 0.50 -1 0.30 0 0.50 0.25 0.50 0.50 0 0.30 0.35 0.50 0.75 0.50 0.40 0 0.75 0.25 0.75 0.50 0 0.30 -0.55 0.50 -1.25 0.50 -0.90 0 -1.25 -0.25 -1.25 -1z"/>
        <path d="M67 519 c0 -0.65 0.35 -1 1 -1 0.55 0 1 0.25 1 0.50 0 0.30 0.35 0.50 0.75 0.50 0.40 0 0.75 0.25 0.75 0.50 0 0.30 -0.80 0.50 -1.75 0.50 -1.40 0 -1.75 -0.20 -1.75 -1z"/>
        <path d="M86.65 513.75 c-0.35 -0.40 -0.65 -0.90 -0.65 -1.10 0 -0.25 -0.45 -0.75 -1 -1.15 -1.40 -1 -1.25 -1.50 0.50 -1.50 0.85 0 1.50 0.25 1.50 0.50 0 0.30 0.45 0.50 1 0.50 0.65 0 1 0.35 1 1 0 0.55 -0.20 1 -0.50 1 -0.25 0 -0.50 0.35 -0.50 0.75 0 0.95 -0.55 0.95 -1.35 0z"/>
        <path d="M50.15 511.75 c-1.15 -1.25 -1.60 -4.25 -0.65 -4.25 0.30 0 0.50 0.25 0.50 0.55 0 0.30 0.90 1.40 2 2.45 1.10 1.05 2 2.05 2 2.20 0 0.80 -2.90 0.10 -3.85 -0.95z"/>
        <path d="M106 509.75 c0 -0.70 -0.20 -1.25 -0.50 -1.25 -0.25 0 -0.50 -0.55 -0.50 -1.25 0 -0.90 0.25 -1.25 1 -1.25 0.80 0 1 0.35 1 1.50 0 0.85 0.25 1.50 0.50 1.50 0.30 0 0.50 0.45 0.50 1 0 0.65 -0.35 1 -1 1 -0.75 0 -1 -0.35 -1 -1.25z"/>
        <path d="M149 506.50 c0 -1.15 0.20 -1.50 1 -1.50 1.15 0 1.35 1.25 0.30 2.30 -1.05 1.05 -1.30 0.90 -1.30 -0.80z"/>
        <path d="M77 506.50 c0 -0.25 -0.65 -0.50 -1.50 -0.50 -0.80 0 -1.50 -0.20 -1.50 -0.50 0 -0.25 -0.65 -0.50 -1.50 -0.50 -0.80 0 -1.50 -0.20 -1.50 -0.50 0 -0.25 -0.65 -0.50 -1.50 -0.50 -0.80 0 -1.50 -0.20 -1.50 -0.50 0 -0.25 -0.40 -0.50 -0.90 -0.50 -0.50 0 -1.20 -0.45 -1.60 -1 -0.40 -0.55 -1 -1 -1.30 -1 -1.20 0 -1.20 -1.55 0.05 -2.80 1.10 -1.10 1.60 -1.20 5.50 -1.20 2.50 0 4.25 0.20 4.25 0.50 0 0.30 0.90 0.50 2 0.50 1.10 0 2 0.25 2 0.50 0 0.30 0.45 0.50 1 0.50 0.55 0 1 0.25 1 0.50 0 0.70 1.45 0.60 2.15 -0.15 0.90 -1 1.85 -2.75 1.85 -3.50 0 -0.35 0.45 -0.95 1 -1.35 0.55 -0.40 1 -1.10 1 -1.60 0 -0.50 0.25 -0.90 0.50 -0.90 1.10 0 0.50 -2.95 -0.80 -3.95 l-1.35 -1.05 6.85 0 c6.20 0 7.80 0.30 6.30 1.25 -0.25 0.15 -0.50 1.10 -0.50 2.05 0 0.95 -0.20 1.70 -0.50 1.70 -0.25 0 -0.50 0.45 -0.50 1 0 0.55 -0.20 1 -0.50 1 -0.25 0 -0.50 0.40 -0.50 0.90 0 1.30 -1.15 3.60 -1.80 3.60 -0.30 0 -1.75 -0.25 -3.20 -0.50 -3 -0.55 -4.50 -0.30 -4.50 0.80 0 0.40 -0.20 0.70 -0.50 0.70 -0.25 0 -0.50 0.45 -0.50 1 0 0.90 -0.35 1 -3.50 1 -2.60 0 -3.50 -0.15 -3.50 -0.70 0 -0.80 -3.10 -1.30 -8.10 -1.30 l-3.45 0 1.25 1.25 c0.70 0.70 1.60 1.25 2.05 1.25 0.40 0 0.75 0.25 0.75 0.50 0 0.30 0.70 0.50 1.50 0.50 0.85 0 1.50 0.25 1.50 0.50 0 0.30 0.70 0.50 1.50 0.50 0.85 0 1.50 0.25 1.50 0.50 0 0.30 0.70 0.50 1.50 0.50 1.15 0 1.50 0.20 1.50 1 0 0.65 -0.35 1 -1 1 -0.55 0 -1 -0.20 -1 -0.50z"/>
        <path d="M89.50 504.75 c0 -1.55 0.15 -1.75 1.25 -1.75 0.90 0 1.25 0.25 1.25 1 0 0.55 -0.20 1 -0.50 1 -0.25 0 -0.50 0.35 -0.50 0.75 0 0.40 -0.35 0.75 -0.75 0.75 -0.50 0 -0.75 -0.55 -0.75 -1.75z"/>
        <path d="M148.50 502 c0 -1.15 -0.20 -1.50 -1 -1.50 -0.55 0 -1 -0.20 -1 -0.50 0 -0.25 -1.25 -0.50 -2.75 -0.50 -2.60 0 -2.75 -0.05 -2.75 -1.25 0 -1.15 0.15 -1.25 2.50 -1.25 1.40 0 2.50 0.25 2.50 0.50 0 0.30 0.55 0.50 1.25 0.50 1.45 0 3.75 2 3.75 3.25 0 0.40 0.25 0.75 0.50 0.75 0.30 0 0.50 0.35 0.50 0.75 0 0.50 -0.55 0.75 -1.75 0.75 -1.60 0 -1.75 -0.10 -1.75 -1.50z"/>
        <path d="M46.50 500 c0 -1.15 -0.20 -1.50 -1 -1.50 -0.95 0 -1 -0.35 -1 -6.45 0 -5.25 0.15 -6.50 0.75 -6.75 0.50 -0.15 0.75 0.05 0.75 0.70 0 0.85 0.30 0.95 3.80 0.75 2.05 -0.10 4.25 0 4.85 0.20 1 0.40 0.90 0.60 -1.65 3.35 -3.65 3.90 -4 4.65 -4 8.20 0 2.85 -0.05 3 -1.25 3 -1.05 0 -1.25 -0.25 -1.25 -1.50z"/>
        <path d="M118.65 500.15 c-0.35 -0.10 -0.65 -0.90 -0.65 -1.70 0 -0.80 -0.20 -1.45 -0.50 -1.45 -0.25 0 -0.50 -0.65 -0.50 -1.50 0 -0.80 -0.20 -1.50 -0.50 -1.50 -0.25 0 -0.50 -0.55 -0.50 -1.15 0 -0.65 -0.40 -1.95 -0.85 -2.90 -0.95 -1.85 -1.50 -4.75 -0.70 -3.50 0.60 0.90 9.15 1 9.45 0.10 0.15 -0.45 0.40 -0.45 1 0.05 0.60 0.50 0.70 0.50 0.40 0.05 -0.20 -0.35 -0.10 -0.65 0.15 -0.65 0.35 0 0.55 2.35 0.55 6.75 l0 6.75 -1.25 0 c-0.70 0 -1.25 -0.20 -1.25 -0.50 0 -0.25 -0.65 -0.50 -1.45 -0.50 -1 0 -1.50 0.30 -1.70 1 -0.25 1 -0.60 1.15 -1.70 0.65z"/>
        <path d="M178.40 499.45 c-0.15 -1.15 -0.35 -1.20 -4.30 -1.35 -3.10 -0.10 -4.40 0.05 -5.20 0.65 -0.65 0.40 -1.75 0.75 -2.50 0.75 -1.25 0 -1.40 -0.15 -1.40 -1.75 0 -0.95 -0.20 -1.75 -0.50 -1.75 -0.25 0 -0.50 -0.45 -0.50 -1 0 -0.55 -0.20 -1 -0.50 -1 -0.25 0 -0.50 -0.35 -0.50 -0.75 0 -0.85 -2.15 -3.25 -2.90 -3.25 -0.25 0 -0.85 -0.45 -1.30 -0.95 -0.50 -0.55 -1.40 -1.10 -2.10 -1.25 -0.65 -0.20 -1.20 -0.55 -1.20 -0.80 0 -0.25 -0.35 -0.35 -0.75 -0.20 -0.40 0.20 -0.75 0.05 -0.75 -0.25 0 -0.70 1.35 -0.75 1.75 -0.05 0.15 0.25 1 0.50 1.90 0.50 0.90 0 8.90 0.05 17.85 0.10 8.95 0.10 16.70 0 17.25 -0.15 0.55 -0.20 2.30 -1.65 3.90 -3.20 l2.85 -2.85 0 1.60 c0 1.70 -0.95 3 -2.20 3 -0.45 0 -0.80 0.35 -0.80 0.80 0 0.75 -9.85 10.70 -10.60 10.70 -0.25 0 -0.40 0.35 -0.40 0.75 0 0.40 -0.35 0.75 -0.75 0.75 -0.35 0 -0.90 0.35 -1.15 0.80 -0.25 0.50 -1.35 0.90 -2.75 1.05 -2.10 0.25 -2.30 0.20 -2.45 -0.90z"/>
        <path d="M56.90 486.75 c0.65 -0.45 1.30 -0.70 1.45 -0.55 0.40 0.40 0.15 0.60 -1.35 1.05 l-1.25 0.35 1.15 -0.85z"/>
    </g>
    <g fill="#1089d4">
        <path d="M57 537 c0 -0.65 0.35 -1 1 -1 0.55 0 1 0.25 1 0.50 0 0.30 0.35 0.50 0.75 0.50 0.40 0 0.75 0.25 0.75 0.50 0 0.30 -0.80 0.50 -1.75 0.50 -1.40 0 -1.75 -0.20 -1.75 -1z"/>
        <path d="M72.50 537.50 c0 -0.25 0.35 -0.50 0.75 -0.50 0.40 0 0.75 -0.20 0.75 -0.50 0 -0.25 0.45 -0.50 1 -0.50 0.65 0 1 0.35 1 1 0 0.80 -0.35 1 -1.75 1 -0.95 0 -1.75 -0.20 -1.75 -0.50z"/>
        <path d="M97 532 c0 -0.55 0.25 -1 0.50 -1 0.30 0 0.50 -0.45 0.50 -0.95 0 -0.85 0.15 -0.90 1.25 -0.40 1.35 0.65 1.70 1.85 0.50 1.85 -0.40 0 -0.75 0.35 -0.75 0.75 0 0.40 -0.45 0.75 -1 0.75 -0.65 0 -1 -0.35 -1 -1z"/>
        <path d="M70 523.20 c0 -2.35 -0.85 -3.10 -3.95 -3.50 -1.55 -0.20 -2.55 -0.60 -2.55 -0.95 0 -0.40 -1.10 -0.80 -3 -1 -1.95 -0.25 -3 -0.55 -3 -1 0 -0.40 -0.85 -0.80 -2 -1 -1.25 -0.20 -2 -0.60 -2 -1.05 0 -0.40 -0.35 -0.70 -0.75 -0.70 -0.50 0 -0.75 -0.50 -0.75 -1.55 0 -1.50 -0.05 -1.55 -1.60 -1.20 -0.90 0.25 -2.55 0.45 -3.65 0.45 l-2 0.05 -0.15 -7.50 c-0.05 -4.10 0 -8 0.15 -8.60 0.40 -1.60 1.25 -1.45 1.30 0.25 0 0.75 0.15 1.05 0.30 0.75 0.10 -0.35 0.55 -0.65 0.95 -0.65 0.45 0 0.65 0.20 0.50 0.40 -0.10 0.20 0 0.70 0.25 1.10 0.40 0.55 0.45 0.35 0.30 -0.70 -0.15 -0.80 0 -1.75 0.35 -2.05 0.40 -0.45 0.50 0.90 0.40 5.35 -0.15 4.60 0 6.35 0.60 7.60 0.90 1.90 4.45 5.30 5.55 5.30 0.40 0 0.75 0.25 0.75 0.50 0 0.30 0.45 0.50 1 0.50 0.55 0 1 0.25 1 0.50 0 0.30 0.45 0.50 1 0.50 0.55 0 1 0.25 1 0.50 0 0.30 0.55 0.50 1.20 0.50 0.70 0 1.40 0.25 1.55 0.50 0.15 0.30 0.95 0.50 1.80 0.50 0.80 0 1.45 0.25 1.45 0.50 0 0.30 0.55 0.50 1.20 0.50 0.70 0 1.40 0.25 1.55 0.50 0.15 0.30 0.65 0.50 1.05 0.50 1.05 0 3.60 2.60 2.80 2.90 -0.35 0.10 -0.60 0.50 -0.60 0.95 0 0.70 -1.15 2.15 -1.70 2.15 -0.15 0 -0.30 -0.80 -0.30 -1.80z"/>
        <path d="M58 523.50 c0 -0.25 -0.45 -0.50 -1 -0.50 -0.55 0 -1 -0.20 -1 -0.50 0 -0.25 -0.35 -0.50 -0.75 -0.50 -0.40 0 -0.75 -0.35 -0.75 -0.75 0 -0.50 0.55 -0.75 1.75 -0.75 1.20 0 1.75 0.25 1.75 0.75 0 0.40 0.45 0.75 1 0.75 0.65 0 1 0.35 1 1 0 0.65 -0.35 1 -1 1 -0.55 0 -1 -0.20 -1 -0.50z"/>
        <path d="M150.50 521.50 c0 -0.25 0.35 -0.50 0.75 -0.50 0.40 0 0.75 -0.20 0.75 -0.50 0 -0.25 0.45 -0.50 1 -0.50 0.65 0 1 0.35 1 1 0 0.80 -0.35 1 -1.75 1 -0.95 0 -1.75 -0.20 -1.75 -0.50z"/>
        <path d="M156.50 519.75 c0 -0.40 0.30 -0.75 0.65 -0.75 0.35 0 0.95 -0.45 1.35 -1 0.40 -0.55 1 -1 1.40 -1 0.85 0 2.10 -1.25 2.10 -2.10 0 -0.40 0.45 -1 1 -1.40 0.55 -0.40 1 -1.10 1 -1.60 0 -0.50 0.25 -0.90 0.50 -0.90 0.30 0 0.50 -0.90 0.50 -2 0 -1.10 0.25 -2 0.50 -2 0.60 0 0.70 -6.85 0.05 -7.10 -0.20 -0.05 -0.50 -1.20 -0.65 -2.50 -0.25 -2 -0.15 -2.25 0.40 -1.65 0.40 0.35 0.70 1.05 0.70 1.50 0 0.80 0.10 0.80 1.25 0.05 0.95 -0.60 2.50 -0.80 6.70 -0.80 3.35 0 5.60 0.20 5.80 0.55 0.20 0.30 0.70 0.40 1.10 0.25 0.40 -0.15 0.55 -0.10 0.40 0.15 -0.15 0.25 -0.05 0.60 0.20 0.75 0.25 0.15 0.55 -0.05 0.75 -0.45 0.15 -0.40 0.60 -0.75 1.05 -0.75 0.40 0 0.75 -0.35 0.75 -0.75 0 -0.40 0.15 -0.75 0.40 -0.75 0.20 0 1.65 -1.25 3.25 -2.80 l2.85 -2.75 0 1.75 c0 1.45 -0.20 1.80 -1 1.80 -0.55 0 -1 0.35 -1 0.75 0 1 -2.25 3.25 -3.25 3.25 -0.40 0 -0.75 0.35 -0.75 0.80 0 0.40 -4.40 5.15 -9.80 10.50 -8.85 8.75 -10 9.70 -11.50 9.70 -0.95 0 -1.70 0.25 -1.70 0.50 0 0.30 -0.35 0.50 -0.75 0.50 -0.40 0 -0.75 0.25 -0.75 0.50 0 0.30 -0.80 0.50 -1.75 0.50 -1.20 0 -1.75 -0.25 -1.75 -0.75z"/>
        <path d="M102 516.50 c0 -0.80 0.25 -1.50 0.50 -1.50 0.30 0 0.50 -0.65 0.50 -1.50 0 -0.80 0.25 -1.50 0.50 -1.50 0.30 0 0.50 -0.65 0.50 -1.50 0 -0.80 0.25 -1.50 0.50 -1.50 0.30 0 0.50 -0.65 0.50 -1.50 0 -0.80 0.25 -1.50 0.50 -1.50 0.30 0 0.50 0.25 0.50 0.55 0 0.25 0.25 0.35 0.50 0.20 0.30 -0.15 0.50 0.25 0.50 0.95 0 0.70 0.25 1.40 0.50 1.55 0.30 0.15 0.50 0.85 0.50 1.55 0 0.65 0.25 1.20 0.50 1.20 0.30 0 0.50 0.70 0.50 1.50 0 0.85 0.25 1.50 0.50 1.50 0.30 0 0.50 0.45 0.50 1 0 0.65 -0.35 1 -1 1 -0.55 0 -1 -0.35 -1 -0.75 0 -0.40 -0.35 -0.75 -0.75 -0.75 -0.50 0 -0.75 -0.50 -0.75 -1.50 0 -0.80 -0.20 -1.50 -0.50 -1.50 -0.25 0 -0.50 0.80 -0.50 1.75 0 1.10 -0.30 1.90 -0.75 2.05 -0.40 0.20 -0.75 0.60 -0.75 1 0 0.40 -0.45 0.70 -1 0.70 -0.80 0 -1 -0.35 -1 -1.50z"/>
        <path d="M125 516.75 c0 -0.40 -0.20 -0.75 -0.50 -0.75 -0.25 0 -0.50 -0.65 -0.50 -1.50 0 -0.80 -0.20 -1.50 -0.50 -1.50 -0.25 0 -0.50 -0.65 -0.50 -1.50 0 -0.80 -0.20 -1.50 -0.50 -1.50 -0.25 0 -0.50 -0.45 -0.50 -1 0 -0.55 -0.20 -1 -0.50 -1 -0.25 0 -0.50 -0.65 -0.50 -1.50 0 -0.80 -0.20 -1.50 -0.50 -1.50 -0.25 0 -0.50 -0.65 -0.50 -1.50 0 -0.80 -0.20 -1.50 -0.50 -1.50 -0.25 0 -0.50 -0.45 -0.50 -0.95 0 -0.55 -0.30 -1.05 -0.60 -1.20 -0.50 -0.15 -0.50 -0.40 0.10 -1.15 0.40 -0.50 0.50 -0.80 0.30 -0.60 -0.55 0.45 -1.80 -1.80 -1.80 -3.15 0 -0.55 0.25 -0.95 0.50 -0.95 0.30 0 0.50 0.30 0.45 0.65 -0.25 1.80 0.10 2.35 1.45 2.35 0.75 0 1.70 -0.30 2.05 -0.60 0.55 -0.50 0.65 -0.50 0.35 0 -0.25 0.40 0.05 0.60 0.90 0.60 0.80 0 1.30 -0.30 1.30 -0.75 0 -0.40 0.30 -0.60 0.70 -0.45 0.45 0.20 0.80 -0.15 0.95 -0.90 0.10 -0.65 0.25 4.20 0.30 10.75 0.05 7.60 -0.15 11.85 -0.45 11.85 -0.25 0 -0.50 -0.35 -0.50 -0.75z"/>
        <path d="M87 514.75 c0 -0.40 -0.20 -0.75 -0.50 -0.75 -0.25 0 -0.50 -0.40 -0.50 -0.90 0 -0.45 -0.75 -1.55 -1.65 -2.35 -1.90 -1.70 -7.55 -4.75 -8.90 -4.75 -0.50 0 -1.05 -0.20 -1.20 -0.50 -0.15 -0.25 -0.85 -0.50 -1.50 -0.50 -0.65 0 -1.35 -0.20 -1.50 -0.50 -0.15 -0.25 -0.70 -0.50 -1.20 -0.50 -1.15 0 -3.75 -1.30 -4.55 -2.25 -0.35 -0.40 -1.05 -0.75 -1.55 -0.75 -1.50 0 -1.10 -1.60 0.65 -2.85 1.10 -0.80 1.75 -0.95 2.20 -0.60 0.40 0.35 0.70 0.30 0.95 -0.05 0.25 -0.40 0.50 -0.40 1 0 0.45 0.40 0.75 0.40 1 0 0.40 -0.65 3.25 -0.65 3.25 0 0 0.30 0.15 0.45 0.40 0.40 0.75 -0.25 6.60 1.25 6.60 1.65 0 0.25 0.35 0.45 0.75 0.45 1.20 0 3.25 -2.30 3.25 -3.65 0 -0.70 0.35 -1.35 0.75 -1.55 0.40 -0.15 0.70 0 0.60 0.35 -0.10 0.65 4.65 1.40 6.55 1 0.70 -0.15 1.10 0 1.10 0.40 0.05 0.40 0.45 -0.10 1 -1.05 0.75 -1.40 0.90 -1.50 0.85 -0.60 -0.05 0.60 -0.25 1.10 -0.45 1.10 -0.20 0 -0.40 0.90 -0.40 2 0 1.10 -0.20 2 -0.50 2 -0.25 0 -0.50 0.45 -0.50 1 0 0.55 -0.20 1 -0.50 1 -0.25 0 -0.50 0.55 -0.50 1.25 0 0.70 -0.20 1.25 -0.50 1.25 -0.25 0 -0.50 0.80 -0.50 1.75 0 0.95 -0.20 1.75 -0.50 1.75 -0.25 0 -0.50 0.45 -0.50 1 0 0.55 -0.20 1 -0.50 1 -0.25 0 -0.50 0.55 -0.50 1.20 0 0.70 -0.20 1.40 -0.50 1.55 -0.25 0.15 -0.50 0.85 -0.50 1.55 0 0.65 -0.20 1.20 -0.50 1.20 -0.25 0 -0.50 -0.35 -0.50 -0.75z"/>
        <path d="M141 502.90 c0 -4.15 0.15 -5.90 0.50 -5.40 0.30 0.50 0.50 0.55 0.50 0.15 0 -0.40 0.65 -0.65 1.50 -0.65 0.85 0 1.50 0.20 1.50 0.40 0 0.20 0.60 0.45 1.40 0.50 0.75 0.05 1.45 0.35 1.50 0.60 0.10 0.30 0.60 0.50 1.15 0.50 0.60 0 0.95 0.35 0.95 0.90 0 0.50 0.45 1.20 1 1.60 1.05 0.75 1.40 2.50 0.50 2.50 -0.25 0 -0.50 0.50 -0.50 1.15 -0.05 1.40 -1.10 2.85 -2.20 2.85 -0.45 0 -0.80 0.25 -0.80 0.50 0 0.30 -1.50 0.50 -3.50 0.50 l-3.50 0 0 -6.10z"/>
    </g>
    <g fill="#1872c6">
        <path d="M56.50 537.75 c0 -0.50 -0.50 -0.75 -1.50 -0.75 -0.80 0 -1.50 -0.20 -1.50 -0.50 0 -0.25 -0.65 -0.50 -1.45 -0.50 -0.80 0 -1.55 -0.25 -1.65 -0.50 -0.10 -0.30 -1.45 -0.70 -3.05 -0.85 l-2.85 -0.30 0 -12.90 c0 -10.70 0.10 -12.95 0.70 -12.95 0.35 0 0.80 0.45 0.95 1 0.20 0.80 0.50 0.90 1.40 0.55 0.65 -0.20 1.30 -0.95 1.50 -1.60 0.30 -1.10 0.35 -1.15 0.70 -0.25 0.25 0.50 1.30 1.75 2.40 2.75 1.10 1 2.25 2.05 2.55 2.35 0.30 0.30 1.15 0.70 1.90 0.85 0.75 0.20 1.70 0.70 2.10 1.10 0.40 0.45 0.85 0.70 0.90 0.65 0.25 -0.25 5.40 1.25 5.40 1.60 0 0.15 0.50 0.30 1.15 0.40 2.60 0.20 7.60 3.25 6.55 4 -0.25 0.20 -0.75 0.95 -1.15 1.75 -0.70 1.35 -0.80 1.35 -5.65 1.35 -2.95 0 -4.90 -0.20 -4.90 -0.50 0 -0.25 -0.40 -0.50 -0.90 -0.50 -1.10 0 -3.60 -1.10 -3.60 -1.60 0 -0.25 -0.80 -0.40 -1.75 -0.40 -1.40 0 -1.75 0.20 -1.75 1 0 0.55 -0.20 1 -0.50 1 -0.25 0 -0.50 0.45 -0.50 1 0 0.55 -0.20 1 -0.50 1 -0.25 0 -0.50 0.45 -0.50 1 0 0.55 -0.20 1 -0.50 1 -0.25 0 -0.50 0.45 -0.50 1 0 0.55 -0.20 1 -0.50 1 -0.25 0 -0.50 0.60 -0.50 1.40 0 1.10 0.40 1.55 2.40 2.50 1.30 0.60 2.90 1.10 3.50 1.10 0.60 0 1.10 0.25 1.10 0.50 0 0.30 0.40 0.50 0.90 0.50 1.35 0 3.60 1.15 3.60 1.90 0 0.35 -0.75 0.60 -2 0.60 -1.45 0 -2 -0.20 -2 -0.75z"/>
        <path d="M73 537.70 c0 -0.65 1.75 -1.65 2.90 -1.70 0.60 0 1.10 -0.20 1.10 -0.50 0 -0.25 0.45 -0.50 1 -0.50 0.55 0 1 -0.20 1 -0.50 0 -0.25 0.25 -0.50 0.50 -0.50 0.30 0 0.50 0.45 0.50 0.95 0 0.55 0.40 1.05 0.90 1.15 0.45 0.15 -0.35 0.40 -1.75 0.60 -1.45 0.20 -2.65 0.60 -2.65 0.85 0 0.25 -0.80 0.45 -1.75 0.45 -0.95 0 -1.75 -0.15 -1.75 -0.30z"/>
        <path d="M95.15 536.15 c0.45 -0.10 0.85 -0.65 0.85 -1.20 0 -0.50 0.25 -0.95 0.50 -0.95 0.30 0 0.50 -0.50 0.50 -1.10 0.05 -2.65 0.75 -2.90 8.70 -2.90 4.55 0 7.30 -0.20 7.30 -0.50 0 -0.25 0.25 -0.50 0.50 -0.50 0.30 0 0.50 0.45 0.50 1 0 0.55 0.25 1 0.50 1 0.30 0 0.50 0.70 0.50 1.50 0 0.85 0.25 1.50 0.50 1.50 0.30 0 0.50 0.45 0.50 0.95 0 0.55 0.40 1.10 0.90 1.20 0.45 0.15 -0.10 0.25 -1.25 0.30 -1.85 0.05 -2.15 -0.10 -2.15 -0.95 0 -0.55 -0.20 -1 -0.50 -1 -0.25 0 -0.50 -0.45 -0.50 -1 0 -1.10 -0.25 -1.15 -7.70 -1 -2.65 0.05 -4.15 0.30 -4.65 0.80 -0.40 0.40 -0.95 0.70 -1.20 0.70 -0.25 0 -0.45 0.55 -0.45 1.25 0 1.15 -0.20 1.25 -2.10 1.20 -1.20 -0.05 -1.75 -0.15 -1.25 -0.30z"/>
        <path d="M143.15 536.15 c-0.35 -0.10 -0.65 -0.80 -0.65 -1.45 0 -0.75 -0.30 -1.20 -0.75 -1.20 -0.65 0 -0.75 -1.05 -0.75 -6.25 l0 -6.25 5.45 0 c3.15 0 5.60 -0.20 5.80 -0.50 0.15 -0.25 0.85 -0.50 1.55 -0.50 0.65 0 1.20 -0.20 1.20 -0.50 0 -0.25 0.80 -0.50 1.75 -0.50 0.95 0 1.75 -0.20 1.75 -0.50 0 -0.25 0.25 -0.50 0.50 -0.50 0.30 0 1.05 -0.45 1.60 -1 0.75 -0.70 1.20 -0.85 1.45 -0.45 0.20 0.35 0.75 0.45 1.25 0.20 0.90 -0.35 0.90 -0.35 0 -0.70 -1.35 -0.50 -1.45 -1.85 -0.15 -1.90 0.60 -0.05 1.30 0.10 1.60 0.35 0.30 0.25 0.90 0.15 1.45 -0.30 0.55 -0.40 0.75 -0.70 0.50 -0.70 -0.30 0 -0.80 0.30 -1.10 0.60 -0.50 0.50 -0.60 0.10 -0.55 -2 0.05 -1.40 0.30 -2.60 0.50 -2.60 0.20 0 0.30 0.45 0.20 1 -0.25 1.40 0.20 2.50 1.10 2.50 0.40 0 0.55 -0.25 0.35 -0.60 -0.20 -0.30 -0.15 -0.40 0.15 -0.25 0.30 0.20 1.35 -0.45 2.35 -1.45 l1.80 -1.80 0 1.80 c0 1.45 -0.20 1.80 -1 1.80 -0.65 0 -1 0.35 -1 0.95 0 0.55 -0.45 1.15 -1 1.30 -0.55 0.15 -1 0.55 -1 0.80 0 0.25 -4.65 5.05 -10.35 10.70 -9.05 9.05 -10.50 10.25 -11.85 10.20 -0.85 0 -1.85 -0.15 -2.15 -0.30z"/>
        <path d="M125 517.55 c0 -0.85 -0.25 -1.65 -0.50 -1.80 -0.30 -0.20 -0.40 -1.10 -0.25 -2.15 0.20 -1.25 0.15 -1.65 -0.15 -1.15 -0.65 0.90 -1.25 -0.10 -0.85 -1.40 0.20 -0.60 0 -1.05 -0.55 -1.25 -0.45 -0.20 -0.75 -0.45 -0.60 -0.55 0.40 -0.40 1.90 0.30 1.90 0.85 0 0.70 1.35 1.90 1.70 1.55 0.15 -0.20 0.30 1.40 0.30 3.50 0 2.25 -0.20 3.85 -0.50 3.85 -0.25 0 -0.50 -0.65 -0.50 -1.45z"/>
        <path d="M102.20 516.75 c0.10 -0.70 0.55 -1.60 1.10 -2.05 0.50 -0.40 0.65 -0.65 0.35 -0.45 -0.45 0.20 -0.65 -0.05 -0.65 -0.70 0 -0.60 0.15 -1.05 0.40 -1.05 0.20 0 0.60 -0.55 0.95 -1.25 0.35 -0.80 0.40 -1.25 0.05 -1.25 -0.35 0 -0.30 -0.25 0.05 -0.70 0.35 -0.40 1.05 -0.60 1.55 -0.45 1.10 0.30 1.30 0.95 0.40 1.25 -0.45 0.15 -0.45 0.30 0 0.60 0.35 0.20 0.60 0.10 0.60 -0.15 0 -0.30 0.25 -0.55 0.50 -0.55 0.30 0 0.50 0.95 0.50 2.15 0 1.55 0.15 1.90 0.50 1.35 0.40 -0.60 0.50 -0.55 0.50 0.35 0 0.60 0.25 1.25 0.50 1.40 0.30 0.15 0.50 0.85 0.50 1.55 0 1.15 -0.10 1.20 -3.95 1.20 -3.95 0 -4 0 -3.85 -1.25z"/>
        <path d="M87 515.10 c0 -0.50 -0.25 -1.15 -0.60 -1.50 -0.35 -0.35 -0.40 -0.60 -0.15 -0.60 0.25 0 -0.35 -0.85 -1.30 -1.85 -1.65 -1.80 -0.40 -1.05 1.90 1.20 1.15 1.10 1.60 3.65 0.65 3.65 -0.25 0 -0.50 -0.40 -0.50 -0.90z"/>
        <path d="M141 508.50 c0 -0.30 0.55 -0.40 1.40 -0.20 1.95 0.50 2 0.70 0.20 0.70 -0.90 0 -1.60 -0.25 -1.60 -0.50z"/>
    </g>
    <g fill="#1d62bc">
        <path d="M44.50 541.50 c0 -10.35 0.10 -12 0.75 -12 0.75 0 1 0.80 0.85 2.65 -0.10 0.75 0.05 0.75 0.90 0.25 0.55 -0.35 1 -0.90 1 -1.25 0 -0.35 0.25 -0.65 0.50 -0.65 0.30 0 0.50 0.50 0.50 1.15 0 1.25 2.30 2.65 6.65 3.90 1.30 0.35 2.35 0.85 2.35 1.05 0 0.20 3.45 0.40 7.65 0.40 7 0 10.55 -0.50 11.65 -1.65 0.55 -0.55 2.70 -0.40 2.70 0.15 0 0.30 2.95 0.50 7.80 0.50 8.25 0 9.20 -0.25 9.20 -2.45 0 -0.55 0.45 -1.10 1 -1.30 0.55 -0.20 1 -0.75 1 -1.30 0 -0.85 0.20 -0.95 1.15 -0.65 1.35 0.50 10.85 0.60 10.85 0.15 0 -0.20 0.70 -0.45 1.50 -0.55 1.40 -0.20 1.50 -0.15 1.50 1.45 0 0.90 0.25 1.65 0.50 1.65 0.30 0 0.50 0.35 0.50 0.80 0 2.05 0.90 2.20 13.70 2.20 l12.30 0 0 -3.25 c0 -1.80 0.20 -3.25 0.45 -3.25 0.30 0 0.40 0.45 0.30 1 -0.10 0.55 0 1.10 0.30 1.25 0.25 0.20 0.45 0 0.45 -0.35 0 -0.45 0.15 -0.45 0.40 -0.10 0.20 0.30 0.95 0.50 1.75 0.50 1.20 -0.05 1.35 0.10 1.20 1.20 -0.15 0.90 -0.45 1.20 -1.15 1.10 -0.75 -0.10 -0.80 -0.05 -0.25 0.35 0.90 0.60 2.65 -0.45 2.30 -1.35 -0.15 -0.35 -0.05 -0.55 0.20 -0.40 0.25 0.15 2.70 -2 5.50 -4.75 l5.05 -5.05 0 1.80 c0 1.65 -0.10 1.80 -1.50 1.80 -1.35 0 -1.50 0.15 -1.50 1.50 0 1.15 -0.20 1.50 -1 1.50 -0.55 0 -1 0.35 -1 0.75 0 0.90 -2.20 3.25 -3 3.25 -0.75 0 -2 1.25 -2 1.95 0 0.30 -3.95 4.50 -8.75 9.30 l-8.75 8.75 -42.75 0 -42.75 0 0 -12z"/>
        <path d="M144.50 546.05 l0 -2.55 1.75 0 c1.40 0 1.80 0.20 2.05 1.20 0.15 0.65 0.20 1.75 0.10 2.35 -0.10 1 -0.50 1.25 -2 1.35 l-1.90 0.15 0 -2.50z"/>
    </g>
    <g fill="#000000">
        <path d="M16.40 586.15 l-3.40 -0.20 0 -71.95 0 -72 286.25 0 286.25 0 -0.10 72.15 -0.15 72.10 -282.75 0.05 c-155.50 0 -284.25 -0.05 -286.10 -0.15z m152.35 -74.40 c22.15 -22.15 40.25 -40.35 40.25 -40.50 0 -0.15 -36.65 -0.25 -81.50 -0.25 l-81.50 0 0 40.50 0 40.50 41.25 0 41.25 0 40.25 -40.25z"/>
    </g>
    <g>
        <text fill="#7f8284" font-family="Arial" x="62.550682%" y="9.935528%" text-anchor="middle"
              dominant-baseline="central" font-size="35.51215">SAP CERTIFICATION
        </text>
        <text fill="#f2ab00" font-family="Arial" x="73.190726%" y="23.605112%" text-anchor="middle"
              dominant-baseline="central" font-size="41.260006">CERTIFIED
        </text>
        <text fill="#f1ab00" font-family="Arial" x="63.86328%" y="31.607899%" text-anchor="middle"
              dominant-baseline="central" font-size="42.240875">PROFESSIONAL
        </text>
        <text fill="#000000" font-family="Arial" x="63.98237%" y="44.707394%" text-anchor="middle"
              dominant-baseline="central" font-size="27.717045">SAP Commerce Cloud 6.7
        </text>
        <text fill="#000000" font-family="Arial" x="80.9709%" y="51.184742%" text-anchor="middle"
              dominant-baseline="central" font-size="26.75204">Developer
        </text>
        <text fill="#ffffff" font-family="Arial" x="77.19122%" y="82.37084%" text-anchor="middle"
              dominant-baseline="central" font-size="27.657822">Development
        </text>
        <text fill="#ffffff" font-family="Arial" x="79.35651%" y="87.92264%" text-anchor="middle"
              dominant-baseline="central" font-size="28.963087">Consultant
        </text>
        <text fill="#1e62c1" font-family="Arial" x="25.43332%" y="91.08198%" text-anchor="middle"
              dominant-baseline="central" font-size="11.309839">®
        </text>
    </g>
</svg>